<svg version="1.1" xmlns="http://www.w3.org/2000/svg" viewBox="0 0 812.131499240606 785" width="812.131499240606" height="785">
  <!-- svg-source:excalidraw -->
  
  <defs>
    <style class="style-fonts">
      @font-face {
        font-family: "Virgil";
        src: url("https://excalidraw.com/Virgil.woff2");
      }
      @font-face {
        font-family: "Cascadia";
        src: url("https://excalidraw.com/Cascadia.woff2");
      }
    </style>
  </defs>
  <rect x="0" y="0" width="812.131499240606" height="785" fill="#ffffff"></rect><g transform="translate(626.131499240606 354.5) rotate(0 47 26.5)"><text x="47" y="18.5" font-family="Virgil, Segoe UI Emoji" font-size="20px" fill="#c92a2a" text-anchor="middle" style="white-space: pre;" direction="ltr">mem2reg</text><text x="47" y="45" font-family="Virgil, Segoe UI Emoji" font-size="20px" fill="#c92a2a" text-anchor="middle" style="white-space: pre;" direction="ltr">(Phi 插入)</text></g><g stroke-linecap="round" transform="translate(352.131499240606 292.5) rotate(0 54 54)"><path d="M68.75 13.75 M68.75 13.75 C74.01 25.66, 84.97 28.87, 94.25 41.25 M68.75 13.75 C75.86 21.92, 83.67 31.05, 94.25 41.25 M94.25 41.25 C104.31 54.14, 105.8 52.5, 94.25 68.75 M94.25 41.25 C111.96 58.95, 108.85 51.97, 94.25 68.75 M94.25 68.75 C86.74 79.82, 74.95 89.98, 68.75 94.25 M94.25 68.75 C89.18 74.69, 82.82 80.47, 68.75 94.25 M68.75 94.25 C52.94 109.11, 55.12 110.55, 41.25 94.25 M68.75 94.25 C53.93 104.09, 52.83 107.5, 41.25 94.25 M41.25 94.25 C31.62 88.59, 24.04 78.71, 13.75 68.75 M41.25 94.25 C36.19 86.79, 30.97 85.24, 13.75 68.75 M13.75 68.75 C-2.06 57.82, -1.84 57.21, 13.75 41.25 M13.75 68.75 C1.95 53.31, -3.17 57.87, 13.75 41.25 M13.75 41.25 C23.85 31.38, 30.44 23.74, 41.25 13.75 M13.75 41.25 C24.97 32.9, 32.11 24.37, 41.25 13.75 M41.25 13.75 C53.01 1.62, 52.61 3.58, 68.75 13.75 M41.25 13.75 C52.15 1.85, 51.91 -0.8, 68.75 13.75" stroke="#c92a2a" stroke-width="1" fill="none"></path></g><g transform="translate(371.631499240606 321.5) rotate(0 34.5 25)"><text x="34.5" y="18" font-family="Virgil, Segoe UI Emoji" font-size="20px" fill="#c92a2a" text-anchor="middle" style="white-space: pre;" direction="ltr">Memory</text><text x="34.5" y="43" font-family="Virgil, Segoe UI Emoji" font-size="20px" fill="#c92a2a" text-anchor="middle" style="white-space: pre;" direction="ltr">SSA</text></g><g stroke-linecap="round" transform="translate(63.974003037574676 176.88909870680862) rotate(0 74.00251254110663 74.00251254110657)"><path d="M93.75 18.75 M93.75 18.75 C104.56 27.79, 114.21 41.93, 129.26 56.25 M93.75 18.75 C101.37 26.08, 107.4 36.29, 129.26 56.25 M129.26 56.25 C151.72 75.11, 146.61 74.81, 129.26 93.75 M129.26 56.25 C147.33 70.44, 152.16 77.05, 129.26 93.75 M129.26 93.75 C118.84 101.65, 106.44 112.14, 93.75 129.26 M129.26 93.75 C121.5 102.97, 111.78 109.03, 93.75 129.26 M93.75 129.26 C74.65 146.96, 78.82 144.17, 56.25 129.26 M93.75 129.26 C71.12 152.22, 72.06 144.34, 56.25 129.26 M56.25 129.26 C51.49 121.44, 40.75 113.11, 18.75 93.75 M56.25 129.26 C42.1 114.2, 25.63 102.32, 18.75 93.75 M18.75 93.75 C2.31 77, -0.82 71.45, 18.75 56.25 M18.75 93.75 C0.82 75.47, -1.54 76.27, 18.75 56.25 M18.75 56.25 C26.22 48.69, 39.44 38.1, 56.25 18.75 M18.75 56.25 C28.96 44.72, 40.78 33.41, 56.25 18.75 M56.25 18.75 C72.22 -2.25, 73 -0.34, 93.75 18.75 M56.25 18.75 C70.68 -4.3, 78.01 -4.45, 93.75 18.75" stroke="#000000" stroke-width="1" fill="none"></path></g><g transform="translate(105.47651557868085 221.89161124791514) rotate(0 32.5 29)"><text x="32.5" y="21" font-family="Virgil, Segoe UI Emoji" font-size="21.55559049007295px" fill="#000000" text-anchor="middle" style="white-space: pre;" direction="ltr">源代码</text><text x="32.5" y="50" font-family="Virgil, Segoe UI Emoji" font-size="21.55559049007295px" fill="#000000" text-anchor="middle" style="white-space: pre;" direction="ltr">文本</text></g><g stroke-linecap="round" transform="translate(231.479874142904 18.889098706808625) rotate(0 74.00251254110663 74.00251254110657)"><path d="M93.75 18.75 M93.75 18.75 C98 25.54, 104.79 33.52, 129.26 56.25 M93.75 18.75 C102.79 30.9, 115.05 39.35, 129.26 56.25 M129.26 56.25 C146.61 74.81, 147.42 71.04, 129.26 93.75 M129.26 56.25 C152.16 77.05, 148.42 73.99, 129.26 93.75 M129.26 93.75 C120.7 98.24, 110.59 109.59, 93.75 129.26 M129.26 93.75 C114.14 106.22, 101.32 121.25, 93.75 129.26 M93.75 129.26 C78.82 144.17, 71.63 151.67, 56.25 129.26 M93.75 129.26 C72.06 144.34, 71.33 144.03, 56.25 129.26 M56.25 129.26 C45.89 119.27, 39.02 111.48, 18.75 93.75 M56.25 129.26 C44.61 120.13, 35.96 109.92, 18.75 93.75 M18.75 93.75 C-0.82 71.45, 0.71 75.41, 18.75 56.25 M18.75 93.75 C-1.54 76.27, -0.62 79.4, 18.75 56.25 M18.75 56.25 C32.94 45.62, 46.58 25.28, 56.25 18.75 M18.75 56.25 C31.47 43.1, 43.35 29.71, 56.25 18.75 M56.25 18.75 C73 -0.34, 71.24 -3.74, 93.75 18.75 M56.25 18.75 C78.01 -4.45, 72.62 -1.82, 93.75 18.75" stroke="#000000" stroke-width="1" fill="none"></path></g><g transform="translate(282.48238668401063 78.8916112479152) rotate(0 23 14)"><text x="0" y="20" font-family="Virgil, Segoe UI Emoji" font-size="21.55559049007295px" fill="#000000" text-anchor="start" style="white-space: pre;" direction="ltr">AST</text></g><g stroke-linecap="round" transform="translate(413.9857452482338 271.443293082851) rotate(0 102.50251254110663 102.50251254110657)"><path d="M128.75 25.75 M128.75 25.75 C134.7 35.14, 147.65 48.56, 179.26 77.25 M128.75 25.75 C143.68 38.66, 154.6 52.25, 179.26 77.25 M179.26 77.25 C204.42 99.04, 208.62 104.78, 179.26 128.75 M179.26 77.25 C205.42 101.99, 201.53 103.82, 179.26 128.75 M179.26 128.75 C164.28 140.28, 158.88 152.48, 128.75 179.26 M179.26 128.75 C162.16 143.68, 147.98 158.55, 128.75 179.26 M128.75 179.26 C99.63 208.67, 100.44 201.82, 77.25 179.26 M128.75 179.26 C99.33 201.03, 101.77 208.31, 77.25 179.26 M77.25 179.26 C65.21 165.36, 44.98 150.2, 25.75 128.75 M77.25 179.26 C65.68 168.03, 51.01 152.4, 25.75 128.75 M25.75 128.75 C0.71 103.41, -1.34 104.1, 25.75 77.25 M25.75 128.75 C-0.62 107.4, 3.12 100.06, 25.75 77.25 M25.75 77.25 C45.74 53.36, 67.78 33.2, 77.25 25.75 M25.75 77.25 C39.57 61.44, 54.9 47.45, 77.25 25.75 M77.25 25.75 C99.24 -3.74, 105.62 -3.87, 128.75 25.75 M77.25 25.75 C100.62 -1.82, 102.65 -1.89, 128.75 25.75" stroke="#000000" stroke-width="1" fill="none"></path></g><g transform="translate(488.4882577893404 335.16238797233757) rotate(0 28 38)"><text x="28" y="27" font-family="Virgil, Segoe UI Emoji" font-size="29.857123882278135px" fill="#000000" text-anchor="middle" style="white-space: pre;" direction="ltr">SSA</text><text x="28" y="65" font-family="Virgil, Segoe UI Emoji" font-size="29.857123882278135px" fill="#000000" text-anchor="middle" style="white-space: pre;" direction="ltr">IR</text></g><g stroke-linecap="round" transform="translate(226.4916163535636 591.9974874588934) rotate(0 74.00251254110663 74.00251254110657)"><path d="M93.75 18.75 M93.75 18.75 C100.98 29.76, 109.9 36.67, 129.26 56.25 M93.75 18.75 C107.52 33.18, 121.69 45.83, 129.26 56.25 M129.26 56.25 C151.62 76.78, 148.37 74.12, 129.26 93.75 M129.26 56.25 C144.53 75.82, 145.09 74.18, 129.26 93.75 M129.26 93.75 C124.48 102.38, 113.71 107.16, 93.75 129.26 M129.26 93.75 C123.32 99.43, 111.95 110.96, 93.75 129.26 M93.75 129.26 C72.44 144.82, 71.8 144.55, 56.25 129.26 M93.75 129.26 C73.77 151.31, 75.24 148.46, 56.25 129.26 M56.25 129.26 C43.89 121.03, 31.85 107.31, 18.75 93.75 M56.25 129.26 C41.9 115.04, 29.14 104.22, 18.75 93.75 M18.75 93.75 C-1.34 76.1, -0.54 78.83, 18.75 56.25 M18.75 93.75 C3.12 72.06, 4.25 74.9, 18.75 56.25 M18.75 56.25 C35.25 39.24, 48.12 25.98, 56.25 18.75 M18.75 56.25 C28.62 46.15, 38.09 34.1, 56.25 18.75 M56.25 18.75 C77.62 -3.87, 72.93 -1.58, 93.75 18.75 M56.25 18.75 C74.65 -1.89, 75.64 0.88, 93.75 18.75" stroke="#000000" stroke-width="1" fill="none"></path></g><g transform="translate(277.9941288946693 638) rotate(0 22.5 28)"><text x="22.5" y="20" font-family="Virgil, Segoe UI Emoji" font-size="21.55559049007295px" fill="#000000" text-anchor="middle" style="white-space: pre;" direction="ltr">TAC</text><text x="22.5" y="48" font-family="Virgil, Segoe UI Emoji" font-size="21.55559049007295px" fill="#000000" text-anchor="middle" style="white-space: pre;" direction="ltr">IR</text></g><g stroke-linecap="round" transform="translate(584.9974874588925 580.9974874588934) rotate(0 74.00251254110663 74.00251254110657)"><path d="M93.75 18.75 M93.75 18.75 C101.36 26.65, 115.36 41.61, 129.26 56.25 M93.75 18.75 C103.94 28.15, 116.79 42.38, 129.26 56.25 M129.26 56.25 C148.37 74.12, 144.99 75.71, 129.26 93.75 M129.26 56.25 C145.09 74.18, 144.52 71.72, 129.26 93.75 M129.26 93.75 C119.83 102.24, 104.75 115.43, 93.75 129.26 M129.26 93.75 C118.52 104.63, 109.2 110.93, 93.75 129.26 M93.75 129.26 C71.8 144.55, 73.93 150.88, 56.25 129.26 M93.75 129.26 C75.24 148.46, 74.64 152.35, 56.25 129.26 M56.25 129.26 C41.81 116.03, 33.32 107.77, 18.75 93.75 M56.25 129.26 C43.63 116.37, 29.48 104.29, 18.75 93.75 M18.75 93.75 C-0.54 78.83, 2.71 72.45, 18.75 56.25 M18.75 93.75 C4.25 74.9, 4.43 74.73, 18.75 56.25 M18.75 56.25 C26.78 46.97, 34.94 36.52, 56.25 18.75 M18.75 56.25 C26.39 45.3, 38.72 36.09, 56.25 18.75 M56.25 18.75 C72.93 -1.58, 74.69 -1.64, 93.75 18.75 M56.25 18.75 C75.64 0.88, 78.3 1.75, 93.75 18.75" stroke="#000000" stroke-width="1" fill="none"></path></g><g transform="translate(638.4999999999991 630) rotate(0 20.5 25)"><text x="20.5" y="18" font-family="Virgil, Segoe UI Emoji" font-size="20px" fill="#000000" text-anchor="middle" style="white-space: pre;" direction="ltr">汇编</text><text x="20.5" y="43" font-family="Virgil, Segoe UI Emoji" font-size="20px" fill="#000000" text-anchor="middle" style="white-space: pre;" direction="ltr">文本</text></g><g stroke-linecap="round"><g transform="translate(187.04322985373437 209.82645234956482) rotate(0 37.97498498859636 -34.31670311913581)"><path d="M2.46 2.6 C15.21 -9.09, 63.45 -59.02, 75.6 -71.23 M0.35 1.54 C12.82 -9.65, 61.21 -56.58, 73.41 -68.13" stroke="#000000" stroke-width="1" fill="none"></path></g><g transform="translate(187.04322985373437 209.82645234956482) rotate(0 37.97498498859636 -34.31670311913581)"><path d="M63.87 -41.11 C62.51 -48.82, 66.85 -59.77, 77.02 -66.35 M60.52 -42.48 C64.02 -50.85, 67.04 -57.48, 75.25 -67.83" stroke="#000000" stroke-width="1" fill="none"></path></g><g transform="translate(187.04322985373437 209.82645234956482) rotate(0 37.97498498859636 -34.31670311913581)"><path d="M49.67 -55.92 C51.98 -59.93, 60.11 -66.93, 77.02 -66.35 M46.32 -57.3 C54.14 -60.87, 61.56 -62.92, 75.25 -67.83" stroke="#000000" stroke-width="1" fill="none"></path></g></g><mask></mask><g stroke-linecap="round"><g transform="translate(343 142.99999999999994) rotate(0 68.79471648417416 74.53842571362853)"><path d="M2.6 0.08 C25.62 24.31, 114.53 123.68, 137.02 147.87 M0.57 -2.35 C23.22 23.57, 111.76 126.56, 134.26 151.43" stroke="#000000" stroke-width="1" fill="none"></path></g><g transform="translate(343 142.99999999999994) rotate(0 68.79471648417416 74.53842571362853)"><path d="M108.05 135.63 C114.87 139.7, 117.95 147.66, 136.04 151.79 M106.67 136.67 C113.53 139.51, 122.53 146.79, 134.56 151.87" stroke="#000000" stroke-width="1" fill="none"></path></g><g transform="translate(343 142.99999999999994) rotate(0 68.79471648417416 74.53842571362853)"><path d="M123.47 122.08 C126.5 129.98, 125.57 141.47, 136.04 151.79 M122.09 123.12 C124.45 129.79, 129.17 140.83, 134.56 151.87" stroke="#000000" stroke-width="1" fill="none"></path></g></g><mask></mask><g stroke-linecap="round"><g transform="translate(487 476) rotate(0 -78.18192931540307 63.51091247782111)"><path d="M0.08 -0.98 C-26.02 19.86, -127.99 105.67, -154.13 127.59 M-3.33 -3.97 C-30.03 18.51, -131.75 109.27, -156.44 131" stroke="#000000" stroke-width="1" fill="none"></path></g><g transform="translate(487 476) rotate(0 -78.18192931540307 63.51091247782111)"><path d="M-143.54 104.43 C-147.79 110.89, -149.13 126.87, -156.08 130.12 M-142.5 103.11 C-146.69 110.53, -146.63 116.59, -156 129.71" stroke="#000000" stroke-width="1" fill="none"></path></g><g transform="translate(487 476) rotate(0 -78.18192931540307 63.51091247782111)"><path d="M-129.93 119.79 C-139.74 120.3, -146.36 130.32, -156.08 130.12 M-128.89 118.46 C-136.19 122.27, -139.18 124.87, -156 129.71" stroke="#000000" stroke-width="1" fill="none"></path></g></g><mask></mask><g stroke-linecap="round"><g transform="translate(385 667) rotate(0 98.30674209147696 -4.452502317726612)"><path d="M-0.98 -0.13 C31.52 -1.61, 164 -8, 197.59 -8.77 M3.69 -2.67 C35.54 -3.92, 162.39 -5.49, 195.13 -6.65" stroke="#000000" stroke-width="1" fill="none"></path></g><g transform="translate(385 667) rotate(0 98.30674209147696 -4.452502317726612)"><path d="M166.99 3.66 C174.19 3.78, 190.91 -3.75, 194.25 -9.67 M165.66 2.82 C176.38 2.73, 185.39 -2.14, 193.84 -8.27" stroke="#000000" stroke-width="1" fill="none"></path></g><g transform="translate(385 667) rotate(0 98.30674209147696 -4.452502317726612)"><path d="M166.52 -16.85 C173.92 -8.67, 190.83 -8.15, 194.25 -9.67 M165.2 -17.69 C175.8 -11.26, 184.96 -9.61, 193.84 -8.27" stroke="#000000" stroke-width="1" fill="none"></path></g></g><mask></mask><g stroke-linecap="round"><g transform="translate(574 291.99999999999994) rotate(0 81.80334983288708 54.30929649565141)"><path d="M-0.13 -0.41 C18.39 -1.99, 83.33 -18.41, 111.23 -10.47 C139.12 -2.52, 167.72 26.53, 167.25 47.26 C166.77 67.98, 132.68 100.89, 108.39 113.89 C84.1 126.88, 36.15 123.39, 21.5 125.22 M-3.65 -3.1 C15.69 -5.32, 87.83 -23.04, 116.12 -14.1 C144.42 -5.17, 167.37 28.93, 166.12 50.5 C164.87 72.08, 133.27 102.9, 108.64 115.35 C84 127.79, 32.48 122.75, 18.3 125.18" stroke="#000000" stroke-width="1" fill="none"></path></g><g transform="translate(574 291.99999999999994) rotate(0 81.80334983288708 54.30929649565141)"><path d="M45.47 109.84 C41.19 119.01, 29.54 119.79, 15.28 125.9 M44.63 113.98 C41.3 116.38, 33.33 117.48, 16.68 125.01" stroke="#000000" stroke-width="1" fill="none"></path></g><g transform="translate(574 291.99999999999994) rotate(0 81.80334983288708 54.30929649565141)"><path d="M46.29 130.35 C41.91 133.3, 30 127.88, 15.28 125.9 M45.45 134.48 C42 132.02, 33.83 128.27, 16.68 125.01" stroke="#000000" stroke-width="1" fill="none"></path></g></g><mask></mask><g stroke-linecap="round"><g transform="translate(258 616) rotate(0 -91.90800896141718 34.498327028318045)"><path d="M-2.77 2.53 C-18.71 -5.36, -65.95 -51.3, -95.75 -47.74 C-125.56 -44.19, -174.82 -2.94, -181.61 23.89 C-188.4 50.72, -165.35 102.39, -136.5 113.22 C-107.65 124.06, -29.58 92.54, -8.5 88.88 M0.92 1.44 C-15.27 -5.91, -66.53 -48.05, -97.31 -43.98 C-128.09 -39.91, -177.36 -0.62, -183.75 25.85 C-190.14 52.32, -164.23 104.4, -135.65 114.86 C-107.06 125.33, -33.56 92.97, -12.24 88.65" stroke="#000000" stroke-width="1" fill="none"></path></g><g transform="translate(258 616) rotate(0 -91.90800896141718 34.498327028318045)"><path d="M-32.49 108.61 C-28.64 101.06, -24.98 97.28, -14.78 87.94 M-34.26 107.13 C-30.05 101.42, -26.76 98.46, -12.76 90.56" stroke="#000000" stroke-width="1" fill="none"></path></g><g transform="translate(258 616) rotate(0 -91.90800896141718 34.498327028318045)"><path d="M-38.59 89.02 C-33 87.37, -27.53 89.38, -14.78 87.94 M-40.36 87.54 C-35.07 86.21, -30.41 87.64, -12.76 90.56" stroke="#000000" stroke-width="1" fill="none"></path></g></g><mask></mask><g transform="translate(155.5 141.99999999999994) rotate(0 31.5 12.5)"><text x="31.5" y="18" font-family="Virgil, Segoe UI Emoji" font-size="20px" fill="#000000" text-anchor="middle" style="white-space: pre;" direction="ltr">parser</text></g><g stroke-linecap="round"><g transform="translate(188.50569622106877 82) rotate(0 0.9249060471991015 25.07144131213426)"><path d="M1.25 0.26 C1.79 8.15, 0.42 41.56, 0.48 49.89" stroke="#000000" stroke-width="1.5" fill="none" stroke-dasharray="8 9"></path></g><g transform="translate(188.50569622106877 82) rotate(0 0.9249060471991015 25.07144131213426)"><path d="M-7.59 24.41 C-8.83 30.87, -6.66 34.38, -2.55 47.04" stroke="#000000" stroke-width="1.5" fill="none"></path></g><g transform="translate(188.50569622106877 82) rotate(0 0.9249060471991015 25.07144131213426)"><path d="M10.2 24.75 C5.37 31.3, 3.97 34.74, -2.55 47.04" stroke="#000000" stroke-width="1.5" fill="none"></path></g></g><mask></mask><g transform="translate(147.5 48) rotate(0 40.5 13.5)"><text x="40.5" y="20" font-family="Virgil, Segoe UI Emoji" font-size="20px" fill="#000000" text-anchor="middle" style="white-space: pre;" direction="ltr">文法文件</text></g><g transform="translate(403.5 138) rotate(0 20.5 26.5)"><text x="20.5" y="18.5" font-family="Virgil, Segoe UI Emoji" font-size="20px" fill="#000000" text-anchor="middle" style="white-space: pre;" direction="ltr">SSA</text><text x="20.5" y="45" font-family="Virgil, Segoe UI Emoji" font-size="20px" fill="#000000" text-anchor="middle" style="white-space: pre;" direction="ltr">构建</text></g><g transform="translate(633.5 287) rotate(0 33.5 27)"><text x="33.5" y="20" font-family="Virgil, Segoe UI Emoji" font-size="20px" fill="#000000" text-anchor="middle" style="white-space: pre;" direction="ltr">SSA 上</text><text x="33.5" y="47" font-family="Virgil, Segoe UI Emoji" font-size="20px" fill="#000000" text-anchor="middle" style="white-space: pre;" direction="ltr">的优化</text></g><g transform="translate(346 469) rotate(0 26 26.5)"><text x="26" y="18.5" font-family="Virgil, Segoe UI Emoji" font-size="20px" fill="#000000" text-anchor="middle" style="white-space: pre;" direction="ltr">TAC </text><text x="26" y="45" font-family="Virgil, Segoe UI Emoji" font-size="20px" fill="#000000" text-anchor="middle" style="white-space: pre;" direction="ltr">构建</text></g><g transform="translate(258 544.5) rotate(0 39 13.5)"><text x="39" y="20" font-family="Virgil, Segoe UI Emoji" font-size="20px" fill="#000000" text-anchor="middle" style="white-space: pre;" direction="ltr">Phi 消除</text></g><g transform="translate(125 598) rotate(0 36 27)"><text x="36" y="20" font-family="Virgil, Segoe UI Emoji" font-size="20px" fill="#000000" text-anchor="middle" style="white-space: pre;" direction="ltr">TAC 上</text><text x="36" y="47" font-family="Virgil, Segoe UI Emoji" font-size="20px" fill="#000000" text-anchor="middle" style="white-space: pre;" direction="ltr">的优化</text></g><g transform="translate(108.5 684) rotate(0 50.5 13.5)"><text x="50.5" y="20" font-family="Virgil, Segoe UI Emoji" font-size="20px" fill="#000000" text-anchor="middle" style="white-space: pre;" direction="ltr">寄存器分配</text></g><g transform="translate(437.5 630) rotate(0 40.5 13.5)"><text x="40.5" y="20" font-family="Virgil, Segoe UI Emoji" font-size="20px" fill="#000000" text-anchor="middle" style="white-space: pre;" direction="ltr">汇编生成</text></g><g stroke-linecap="round" transform="translate(20 10) rotate(0 233 101)"><path d="M32 0 M32 0 C188.27 -2.82, 347.26 -1.59, 434 0 M434 0 C459.15 -3.84, 462.63 14.33, 466 32 M466 32 C460.35 63.5, 466.68 97.34, 466 170 M466 170 C466.4 191.02, 459.11 203.6, 434 202 M434 202 C319.98 201.31, 208.94 201.06, 32 202 M32 202 C9.85 198.45, 0.71 191.74, 0 170 M0 170 C3.06 135.93, -3.32 100.13, 0 32 M0 32 C-0.08 14.52, 10.43 -2.69, 32 0" stroke="#1864ab" stroke-width="1.5" fill="none" stroke-dasharray="1.5 7"></path></g><g stroke-linecap="round" transform="translate(10 461) rotate(0 376 157)"><path d="M32 0 M32 0 C247.48 3.41, 465.13 5.08, 720 0 M720 0 C737.5 -3.37, 755.66 8.11, 752 32 M752 32 C747.87 89.43, 748.91 142.48, 752 282 M752 282 C751.68 307.11, 742.93 313.26, 720 314 M720 314 C482.86 312.86, 244.57 311.61, 32 314 M32 314 C7.11 314.71, 0.41 302, 0 282 M0 282 C2.77 198.01, 3.57 118.13, 0 32 M0 32 C3.85 10.43, 7.97 1.6, 32 0" stroke="#1864ab" stroke-width="1.5" fill="none" stroke-dasharray="1.5 7"></path></g><g transform="translate(403.14814814814827 26) rotate(0 28 18.5)"><text x="28" y="27" font-family="Virgil, Segoe UI Emoji" font-size="27.407407407407405px" fill="#1864ab" text-anchor="middle" style="white-space: pre;" direction="ltr">前端</text></g><g transform="translate(675 483.5) rotate(0 28 18.5)"><text x="28" y="27" font-family="Virgil, Segoe UI Emoji" font-size="27.407407407407405px" fill="#1864ab" text-anchor="middle" style="white-space: pre;" direction="ltr">后端</text></g><g stroke-linecap="round" transform="translate(328.131499240606 237.5) rotate(0 237 103)"><path d="M32 0 M32 0 C144.03 -3.03, 255.33 -2, 442 0 M442 0 C467.12 3.54, 474.39 10.2, 474 32 M474 32 C474.47 64.1, 472.92 98.89, 474 174 M474 174 C471.79 192.74, 462.06 205.89, 442 206 M442 206 C347.94 205.67, 257.54 206.13, 32 206 M32 206 C9.87 203.88, 2.04 198.22, 0 174 M0 174 C3.29 115.17, -1.24 58.58, 0 32 M0 32 C-2.26 9.66, 7.82 2.73, 32 0" stroke="#1864ab" stroke-width="1.5" fill="none" stroke-dasharray="1.5 7"></path></g><g transform="translate(730.1314992406064 249) rotate(0 28 18.5)"><text x="28" y="27" font-family="Virgil, Segoe UI Emoji" font-size="27.407407407407405px" fill="#1864ab" text-anchor="middle" style="white-space: pre;" direction="ltr">中端</text></g></svg>