<svg version="1.1" xmlns="http://www.w3.org/2000/svg" viewBox="0 0 776 797" width="776" height="797">
  <!-- svg-source:excalidraw -->
  
  <defs>
    <style class="style-fonts">
      @font-face {
        font-family: "Virgil";
        src: url("https://excalidraw.com/Virgil.woff2");
      }
      @font-face {
        font-family: "Cascadia";
        src: url("https://excalidraw.com/Cascadia.woff2");
      }
    </style>
  </defs>
  <rect x="0" y="0" width="776" height="797" fill="#ffffff"></rect><g stroke-linecap="round" transform="translate(66.9740030375749 188.88909870680862) rotate(0 74.00251254110651 74.00251254110657)"><path d="M93.75 18.75 M93.75 18.75 C104.61 25.96, 113.51 36.09, 129.26 56.25 M93.75 18.75 C106.51 31.35, 119.23 43.02, 129.26 56.25 M129.26 56.25 C149.29 74.42, 144.5 72.52, 129.26 93.75 M129.26 56.25 C148.86 76.7, 149.95 77.9, 129.26 93.75 M129.26 93.75 C121.45 99.21, 108.97 111.11, 93.75 129.26 M129.26 93.75 C116.16 108.02, 103.74 120.79, 93.75 129.26 M93.75 129.26 C71.65 144.35, 77.43 151.38, 56.25 129.26 M93.75 129.26 C77.19 150.57, 71.09 145.75, 56.25 129.26 M56.25 129.26 C52.14 123.47, 42.12 111.19, 18.75 93.75 M56.25 129.26 C42.54 117.21, 30.44 107.56, 18.75 93.75 M18.75 93.75 C-3.58 73.88, -3.2 77.01, 18.75 56.25 M18.75 93.75 C-0.58 75.28, -3.01 78.54, 18.75 56.25 M18.75 56.25 C33.68 41.58, 49.57 28.26, 56.25 18.75 M18.75 56.25 C32.76 42.42, 42.09 30.86, 56.25 18.75 M56.25 18.75 C72.87 1.81, 77.88 -0.01, 93.75 18.75 M56.25 18.75 C78.74 -3.07, 75.87 -2.02, 93.75 18.75" stroke="#000000" stroke-width="1" fill="none"></path></g><g transform="translate(108.4765155786813 233.89161124791514) rotate(0 32.5 29)"><text x="32.5" y="21" font-family="Virgil, Segoe UI Emoji" font-size="21.55559049007295px" fill="#000000" text-anchor="middle" style="white-space: pre;" direction="ltr">源代码</text><text x="32.5" y="50" font-family="Virgil, Segoe UI Emoji" font-size="21.55559049007295px" fill="#000000" text-anchor="middle" style="white-space: pre;" direction="ltr">文本</text></g><g stroke-linecap="round" transform="translate(234.47987414290446 30.889098706808625) rotate(0 74.00251254110663 74.00251254110657)"><path d="M93.75 18.75 M93.75 18.75 C102.84 29.79, 115.47 40.39, 129.26 56.25 M93.75 18.75 C108.18 31.41, 123.4 48.51, 129.26 56.25 M129.26 56.25 C146.59 77.29, 148.1 74.34, 129.26 93.75 M129.26 56.25 C147.52 72.04, 150.84 72.73, 129.26 93.75 M129.26 93.75 C115.04 102.24, 105.09 115.17, 93.75 129.26 M129.26 93.75 C119.62 106.08, 106.74 114.5, 93.75 129.26 M93.75 129.26 C74.97 145.79, 77.7 150.48, 56.25 129.26 M93.75 129.26 C74.22 151.38, 76.27 146.31, 56.25 129.26 M56.25 129.26 C40.79 115.84, 23.76 105.47, 18.75 93.75 M56.25 129.26 C40.79 115.08, 25.27 104.3, 18.75 93.75 M18.75 93.75 C1.65 77.11, 1.38 76.89, 18.75 56.25 M18.75 93.75 C-1.31 76.67, -3.75 71.03, 18.75 56.25 M18.75 56.25 C32.8 43.56, 49.64 30.12, 56.25 18.75 M18.75 56.25 C28.49 46.42, 37.51 37.73, 56.25 18.75 M56.25 18.75 C77.15 -3.17, 71.65 -1.12, 93.75 18.75 M56.25 18.75 C76.4 -2.84, 78.85 -0.65, 93.75 18.75" stroke="#000000" stroke-width="1" fill="none"></path></g><g transform="translate(285.48238668401086 90.8916112479152) rotate(0 23 14)"><text x="0" y="20" font-family="Virgil, Segoe UI Emoji" font-size="21.55559049007295px" fill="#000000" text-anchor="start" style="white-space: pre;" direction="ltr">AST</text></g><g stroke-linecap="round" transform="translate(416.985745248234 283.443293082851) rotate(0 102.50251254110651 102.50251254110657)"><path d="M128.75 25.75 M128.75 25.75 C145.07 41.64, 165.37 63.22, 179.26 77.25 M128.75 25.75 C141.68 37.87, 149.28 46.5, 179.26 77.25 M179.26 77.25 C201.76 106.93, 201.44 103.64, 179.26 128.75 M179.26 77.25 C208.76 106.11, 205.39 106.08, 179.26 128.75 M179.26 128.75 C165.59 144.3, 146.68 161.45, 128.75 179.26 M179.26 128.75 C161.22 144.19, 140.58 165.43, 128.75 179.26 M128.75 179.26 C102.09 204.72, 100.28 201.29, 77.25 179.26 M128.75 179.26 C105.78 201.89, 101.79 202.34, 77.25 179.26 M77.25 179.26 C62.48 164.46, 53.16 156.65, 25.75 128.75 M77.25 179.26 C62.89 164.1, 48.69 149.96, 25.75 128.75 M25.75 128.75 C3.33 99.9, -0.9 99.21, 25.75 77.25 M25.75 128.75 C0.09 105.12, 1.79 104.86, 25.75 77.25 M25.75 77.25 C35.95 62.78, 52.22 54.67, 77.25 25.75 M25.75 77.25 C42.81 58.62, 60.83 43.12, 77.25 25.75 M77.25 25.75 C104.77 -2.5, 106.69 -1.3, 128.75 25.75 M77.25 25.75 C103.02 2.75, 101.18 4.37, 128.75 25.75" stroke="#000000" stroke-width="1" fill="none"></path></g><g transform="translate(491.4882577893404 347.16238797233757) rotate(0 28 38)"><text x="28" y="27" font-family="Virgil, Segoe UI Emoji" font-size="29.857123882278135px" fill="#000000" text-anchor="middle" style="white-space: pre;" direction="ltr">SSA</text><text x="28" y="65" font-family="Virgil, Segoe UI Emoji" font-size="29.857123882278135px" fill="#000000" text-anchor="middle" style="white-space: pre;" direction="ltr">IR</text></g><g stroke-linecap="round" transform="translate(229.4916163535636 603.9974874588934) rotate(0 74.00251254110663 74.00251254110657)"><path d="M93.75 18.75 M93.75 18.75 C101.88 32.92, 120.45 47.97, 129.26 56.25 M93.75 18.75 C101.43 27.3, 110.39 38.59, 129.26 56.25 M129.26 56.25 C144.3 73.31, 148.16 75.07, 129.26 93.75 M129.26 56.25 C151.12 73.93, 143.75 70.84, 129.26 93.75 M129.26 93.75 C114.93 109.25, 102.8 122.29, 93.75 129.26 M129.26 93.75 C119.13 100.83, 110.76 111.41, 93.75 129.26 M93.75 129.26 C71.76 151.64, 75.62 145.91, 56.25 129.26 M93.75 129.26 C70.47 146.48, 73.01 152.48, 56.25 129.26 M56.25 129.26 C41.86 113.87, 33.8 107.07, 18.75 93.75 M56.25 129.26 C44.59 119.39, 35.3 107.92, 18.75 93.75 M18.75 93.75 C-1.6 72.47, 3.7 71.52, 18.75 56.25 M18.75 93.75 C-4.12 76.86, 0.1 72.83, 18.75 56.25 M18.75 56.25 C27.73 49.63, 40.98 37.41, 56.25 18.75 M18.75 56.25 C33.8 43.93, 45.68 29.45, 56.25 18.75 M56.25 18.75 C77.97 -2.37, 73.13 0.5, 93.75 18.75 M56.25 18.75 C79.59 -1.42, 72.65 4.22, 93.75 18.75" stroke="#000000" stroke-width="1" fill="none"></path></g><g transform="translate(280.99412889466976 650) rotate(0 22.5 28)"><text x="22.5" y="20" font-family="Virgil, Segoe UI Emoji" font-size="21.55559049007295px" fill="#000000" text-anchor="middle" style="white-space: pre;" direction="ltr">TAC</text><text x="22.5" y="48" font-family="Virgil, Segoe UI Emoji" font-size="21.55559049007295px" fill="#000000" text-anchor="middle" style="white-space: pre;" direction="ltr">IR</text></g><g stroke-linecap="round" transform="translate(587.9974874588929 592.9974874588934) rotate(0 74.00251254110663 74.00251254110657)"><path d="M93.75 18.75 M93.75 18.75 C106.77 29.91, 114.19 37.16, 129.26 56.25 M93.75 18.75 C106.06 32.08, 118.18 45.24, 129.26 56.25 M129.26 56.25 C149.53 72.79, 147.29 74.98, 129.26 93.75 M129.26 56.25 C148.77 75.4, 148.29 76.98, 129.26 93.75 M129.26 93.75 C116.61 105.85, 107.23 116.01, 93.75 129.26 M129.26 93.75 C117.72 104.02, 105.83 117.72, 93.75 129.26 M93.75 129.26 C76.2 144.52, 75.93 149.87, 56.25 129.26 M93.75 129.26 C72.61 150.18, 76.84 143.78, 56.25 129.26 M56.25 129.26 C46.97 120.45, 33.4 106.23, 18.75 93.75 M56.25 129.26 C41.38 115.53, 28.57 104.66, 18.75 93.75 M18.75 93.75 C1.04 74.63, -3.56 75.16, 18.75 56.25 M18.75 93.75 C1.93 72.9, 2.93 71.29, 18.75 56.25 M18.75 56.25 C26.94 43.87, 42.82 35.64, 56.25 18.75 M18.75 56.25 C29.95 44.89, 40.49 33.97, 56.25 18.75 M56.25 18.75 C72.54 2.21, 76.28 0.7, 93.75 18.75 M56.25 18.75 C73.73 -3.12, 77.34 -3.52, 93.75 18.75" stroke="#000000" stroke-width="1" fill="none"></path></g><g transform="translate(641.4999999999995 642) rotate(0 20.5 25)"><text x="20.5" y="18" font-family="Virgil, Segoe UI Emoji" font-size="20px" fill="#000000" text-anchor="middle" style="white-space: pre;" direction="ltr">汇编</text><text x="20.5" y="43" font-family="Virgil, Segoe UI Emoji" font-size="20px" fill="#000000" text-anchor="middle" style="white-space: pre;" direction="ltr">文本</text></g><g stroke-linecap="round"><g transform="translate(190.04322985373437 221.82645234956482) rotate(0 37.288145846750695 -35.414052803821285)"><path d="M1.53 -2.41 C14.2 -13.91, 62.94 -57.87, 75.66 -68.97 M-1.08 2.46 C11.26 -9.9, 60.43 -60.56, 73.49 -73.28" stroke="#000000" stroke-width="1" fill="none"></path></g><g transform="translate(190.04322985373437 221.82645234956482) rotate(0 37.288145846750695 -35.414052803821285)"><path d="M57.44 -45.87 C66.33 -50.68, 69.85 -58.27, 76.72 -76.92 M61.15 -45.48 C62.54 -53.27, 64.41 -56.28, 74.84 -74.17" stroke="#000000" stroke-width="1" fill="none"></path></g><g transform="translate(190.04322985373437 221.82645234956482) rotate(0 37.288145846750695 -35.414052803821285)"><path d="M42.9 -60.35 C55.97 -61.15, 63.66 -64.59, 76.72 -76.92 M46.6 -59.96 C51.42 -64.48, 56.56 -64.24, 74.84 -74.17" stroke="#000000" stroke-width="1" fill="none"></path></g></g><mask></mask><g stroke-linecap="round"><g transform="translate(346 154.99999999999994) rotate(0 69.2929913603515 75.06595552451908)"><path d="M1.08 1.97 C24.67 26.89, 117.64 124.86, 140.37 149.56 M-1.78 0.57 C21.77 24.67, 116.57 121.19, 139.42 145.4" stroke="#000000" stroke-width="1" fill="none"></path></g><g transform="translate(346 154.99999999999994) rotate(0 69.2929913603515 75.06595552451908)"><path d="M115.27 135.63 C121.61 134.59, 129.38 136.15, 139.73 146.37 M113.69 132.67 C117.1 135.18, 125.37 137.49, 139.36 145.6" stroke="#000000" stroke-width="1" fill="none"></path></g><g transform="translate(346 154.99999999999994) rotate(0 69.2929913603515 75.06595552451908)"><path d="M130.03 121.38 C132.58 124.11, 136.57 129.33, 139.73 146.37 M128.45 118.41 C128.14 124.43, 132.88 130.15, 139.36 145.6" stroke="#000000" stroke-width="1" fill="none"></path></g></g><mask></mask><g stroke-linecap="round"><g transform="translate(481 476.99999999999994) rotate(0 -72.08765735991301 70.688701062277)"><path d="M0.19 1.39 C-23.46 25.27, -119.14 118.72, -143.14 141.7 M-3.15 -0.32 C-26.89 22.99, -120.73 114.34, -144.37 138.15" stroke="#000000" stroke-width="1" fill="none"></path></g><g transform="translate(481 476.99999999999994) rotate(0 -72.08765735991301 70.688701062277)"><path d="M-129.54 113.7 C-131.26 119.67, -137.98 125.18, -142.98 135.56 M-133.23 112.52 C-133.82 116.89, -138.01 126.76, -144.41 138.53" stroke="#000000" stroke-width="1" fill="none"></path></g><g transform="translate(481 476.99999999999994) rotate(0 -72.08765735991301 70.688701062277)"><path d="M-115.11 128.29 C-120.35 130.56, -130.76 132.35, -142.98 135.56 M-118.81 127.12 C-123.75 127.07, -132.16 132.65, -144.41 138.53" stroke="#000000" stroke-width="1" fill="none"></path></g></g><mask></mask><g stroke-linecap="round"><g transform="translate(388 679) rotate(0 100.1493298150599 -2.1710234686731837)"><path d="M2.33 1.53 C35.29 0.73, 162.86 -5.03, 195.24 -5.88 M0.16 -0.1 C34.15 -0.32, 167.83 -0.9, 200.14 -2.18" stroke="#000000" stroke-width="1" fill="none"></path></g><g transform="translate(388 679) rotate(0 100.1493298150599 -2.1710234686731837)"><path d="M174.34 4.67 C178.34 3.88, 187.56 0.77, 197.93 -2.56 M173.05 8.65 C182.51 3.13, 191.23 2.89, 199.42 -0.48" stroke="#000000" stroke-width="1" fill="none"></path></g><g transform="translate(388 679) rotate(0 100.1493298150599 -2.1710234686731837)"><path d="M173.95 -15.84 C177.87 -12.3, 187.19 -11.07, 197.93 -2.56 M172.66 -11.86 C182.55 -10.23, 191.42 -3.33, 199.42 -0.48" stroke="#000000" stroke-width="1" fill="none"></path></g></g><mask></mask><g stroke-linecap="round"><g transform="translate(577 303.99999999999994) rotate(0 83.2879578799542 55.02165335327717)"><path d="M2.79 -2.31 C22.02 -4.4, 85.89 -22.27, 113.04 -13.89 C140.2 -5.5, 166.15 26.05, 165.71 48.01 C165.26 69.97, 134.07 104.9, 110.37 117.88 C86.67 130.85, 38.47 123.87, 23.51 125.85 M0.86 2.61 C19.84 1.04, 83.14 -17.47, 110.29 -10.74 C137.43 -4, 163.5 22.43, 163.74 43.03 C163.97 63.63, 135.42 99.01, 111.7 112.86 C87.98 126.72, 36.07 123.49, 21.4 126.15" stroke="#000000" stroke-width="1" fill="none"></path></g><g transform="translate(577 303.99999999999994) rotate(0 83.2879578799542 55.02165335327717)"><path d="M45.56 112.68 C41.51 116.8, 38.26 121.81, 24.08 129.74 M48.93 112.11 C42.99 116.7, 34.69 119.19, 22.23 124.7" stroke="#000000" stroke-width="1" fill="none"></path></g><g transform="translate(577 303.99999999999994) rotate(0 83.2879578799542 55.02165335327717)"><path d="M46.92 133.16 C42.77 132.86, 39.23 133.43, 24.08 129.74 M50.29 132.59 C44.06 131.9, 35.4 129.09, 22.23 124.7" stroke="#000000" stroke-width="1" fill="none"></path></g></g><mask></mask><g stroke-linecap="round"><g transform="translate(261 628) rotate(0 -92.1167524049414 35.05096669927599)"><path d="M0.36 2.09 C-16.48 -5.2, -68.89 -49.66, -99.21 -45.35 C-129.52 -41.05, -175.64 1.3, -181.55 27.91 C-187.46 54.52, -164 103.57, -134.64 114.32 C-105.28 125.06, -26.94 96.69, -5.37 92.38 M-2.89 0.75 C-19.03 -7.11, -63.87 -52.7, -94 -48.92 C-124.13 -45.15, -177.19 -4.17, -183.66 23.41 C-190.12 50.99, -162.15 104.78, -132.78 116.55 C-103.4 128.33, -28.05 97.93, -7.42 94.06" stroke="#000000" stroke-width="1" fill="none"></path></g><g transform="translate(261 628) rotate(0 -92.1167524049414 35.05096669927599)"><path d="M-28.71 108.55 C-18.83 104.4, -11.01 102.1, -8.4 97.81 M-30.05 109.9 C-23.99 107.14, -16.24 99.26, -7.33 94.2" stroke="#000000" stroke-width="1" fill="none"></path></g><g transform="translate(261 628) rotate(0 -92.1167524049414 35.05096669927599)"><path d="M-34.37 88.82 C-22.65 91.87, -12.76 96.79, -8.4 97.81 M-35.71 90.18 C-27.28 94.41, -17.55 93.42, -7.33 94.2" stroke="#000000" stroke-width="1" fill="none"></path></g></g><mask></mask><g transform="translate(158.5 153.99999999999994) rotate(0 31.5 12.5)"><text x="31.5" y="18" font-family="Virgil, Segoe UI Emoji" font-size="20px" fill="#000000" text-anchor="middle" style="white-space: pre;" direction="ltr">parser</text></g><g stroke-linecap="round"><g transform="translate(191.505696221069 94) rotate(0 -1.4165264898730356 28.372018857300276)"><path d="M-1.95 2.4 C-2.42 11.72, -1.36 46.45, -0.77 54.35" stroke="#000000" stroke-width="1.5" fill="none" stroke-dasharray="8 9"></path></g><g transform="translate(191.505696221069 94) rotate(0 -1.4165264898730356 28.372018857300276)"><path d="M-7.36 27.7 C-3.97 40.14, -6.81 49.15, -2.61 54.97" stroke="#000000" stroke-width="1.5" fill="none"></path></g><g transform="translate(191.505696221069 94) rotate(0 -1.4165264898730356 28.372018857300276)"><path d="M10.4 26.87 C7.17 39.37, -2.28 48.69, -2.61 54.97" stroke="#000000" stroke-width="1.5" fill="none"></path></g></g><mask></mask><g transform="translate(150.5 60) rotate(0 40.5 13.5)"><text x="40.5" y="20" font-family="Virgil, Segoe UI Emoji" font-size="20px" fill="#000000" text-anchor="middle" style="white-space: pre;" direction="ltr">文法文件</text></g><g transform="translate(393.5 140) rotate(0 20.5 26.5)"><text x="20.5" y="18.5" font-family="Virgil, Segoe UI Emoji" font-size="20px" fill="#000000" text-anchor="middle" style="white-space: pre;" direction="ltr">SSA</text><text x="20.5" y="45" font-family="Virgil, Segoe UI Emoji" font-size="20px" fill="#000000" text-anchor="middle" style="white-space: pre;" direction="ltr">构建</text></g><g transform="translate(646.5 324) rotate(0 33.5 27)"><text x="33.5" y="20" font-family="Virgil, Segoe UI Emoji" font-size="20px" fill="#000000" text-anchor="middle" style="white-space: pre;" direction="ltr">SSA 上</text><text x="33.5" y="47" font-family="Virgil, Segoe UI Emoji" font-size="20px" fill="#000000" text-anchor="middle" style="white-space: pre;" direction="ltr">的优化</text></g><g transform="translate(349 481) rotate(0 26 26.5)"><text x="26" y="18.5" font-family="Virgil, Segoe UI Emoji" font-size="20px" fill="#000000" text-anchor="middle" style="white-space: pre;" direction="ltr">TAC </text><text x="26" y="45" font-family="Virgil, Segoe UI Emoji" font-size="20px" fill="#000000" text-anchor="middle" style="white-space: pre;" direction="ltr">构建</text></g><g transform="translate(445 212) rotate(0 39 13.5)"><text x="39" y="20" font-family="Virgil, Segoe UI Emoji" font-size="20px" fill="#000000" text-anchor="middle" style="white-space: pre;" direction="ltr">Phi 插入</text></g><g transform="translate(261 556.5) rotate(0 39 13.5)"><text x="39" y="20" font-family="Virgil, Segoe UI Emoji" font-size="20px" fill="#000000" text-anchor="middle" style="white-space: pre;" direction="ltr">Phi 消除</text></g><g transform="translate(128 610) rotate(0 36 27)"><text x="36" y="20" font-family="Virgil, Segoe UI Emoji" font-size="20px" fill="#000000" text-anchor="middle" style="white-space: pre;" direction="ltr">TAC 上</text><text x="36" y="47" font-family="Virgil, Segoe UI Emoji" font-size="20px" fill="#000000" text-anchor="middle" style="white-space: pre;" direction="ltr">的优化</text></g><g transform="translate(111.5 696) rotate(0 50.5 13.5)"><text x="50.5" y="20" font-family="Virgil, Segoe UI Emoji" font-size="20px" fill="#000000" text-anchor="middle" style="white-space: pre;" direction="ltr">寄存器分配</text></g><g transform="translate(440.5 642) rotate(0 40.5 13.5)"><text x="40.5" y="20" font-family="Virgil, Segoe UI Emoji" font-size="20px" fill="#000000" text-anchor="middle" style="white-space: pre;" direction="ltr">汇编生成</text></g><g stroke-linecap="round" transform="translate(10 10) rotate(0 378 222)"><path d="M32 0 M32 0 C236.55 1.3, 440.25 1.98, 724 0 M724 0 C746.64 -2.07, 757.74 9.44, 756 32 M756 32 C750.64 124.23, 754.42 211.68, 756 412 M756 412 C759.28 436.76, 746.24 440.94, 724 444 M724 444 C503.51 437.95, 283.45 437.97, 32 444 M32 444 C9.44 447.35, 1.66 430.55, 0 412 M0 412 C-0.35 314.98, -1.8 216.48, 0 32 M0 32 C3.16 7.59, 11.84 2.43, 32 0" stroke="#1864ab" stroke-width="1.5" fill="none" stroke-dasharray="1.5 7"></path></g><g stroke-linecap="round" transform="translate(13 473) rotate(0 376 157)"><path d="M32 0 M32 0 C222.01 3.56, 410.4 3.9, 720 0 M720 0 C744.18 3.33, 751.1 9.21, 752 32 M752 32 C748.98 90.29, 749.06 149.01, 752 282 M752 282 C754.97 299.88, 745.14 312.92, 720 314 M720 314 C449.22 320.54, 181.4 319.39, 32 314 M32 314 C10.23 317.01, 3.85 304.31, 0 282 M0 282 C0.95 199.51, 0.74 120.73, 0 32 M0 32 C0.22 11.24, 7.92 1.67, 32 0" stroke="#1864ab" stroke-width="1.5" fill="none" stroke-dasharray="1.5 7"></path></g><g transform="translate(618.7962962962963 26) rotate(0 62.35185185185185 18.5)"><text x="62.351851851851855" y="27" font-family="Virgil, Segoe UI Emoji" font-size="27.407407407407405px" fill="#1864ab" text-anchor="middle" style="white-space: pre;" direction="ltr">前端/中端</text></g><g transform="translate(678 495.5) rotate(0 28 18.5)"><text x="28" y="27" font-family="Virgil, Segoe UI Emoji" font-size="27.407407407407405px" fill="#1864ab" text-anchor="middle" style="white-space: pre;" direction="ltr">后端</text></g></svg>